<svg width="25" height="24" viewBox="0 0 25 24" fill="none" xmlns="http://www.w3.org/2000/svg">
<g clip-path="url(#clip0_3_188)">
<path d="M23.4976 10.7634L21.8612 9.06908C21.7349 8.93872 21.6746 8.75385 21.7001 8.57422L22.0287 6.24247C22.1637 5.28637 21.524 4.40732 20.5737 4.24101L18.2541 3.83422C18.0751 3.80291 17.9175 3.68821 17.8329 3.5271L16.7307 1.44801C16.2782 0.593896 15.2433 0.257803 14.3752 0.6831L12.2608 1.71801C12.0974 1.79797 11.9027 1.79797 11.7393 1.71801L9.62482 0.6831C8.75623 0.257756 7.72245 0.59385 7.26931 1.44801L6.16718 3.5271C6.0814 3.69051 5.92727 3.80179 5.74591 3.83422L3.42691 4.24101C2.47601 4.40671 1.83687 5.28637 1.97187 6.24187L2.29985 8.57418C2.32535 8.75615 2.26741 8.9369 2.13879 9.06904L0.502383 10.7634C-0.167461 11.4564 -0.167461 12.5435 0.502383 13.2365L2.13879 14.9308C2.26512 15.0612 2.32535 15.2461 2.29985 15.4257L1.9713 17.7575C1.8363 18.7136 2.47601 19.5926 3.4263 19.7589L5.74587 20.1657C5.92493 20.197 6.08252 20.3117 6.16713 20.4728L7.26926 22.5519C7.7224 23.406 8.75674 23.7421 9.62477 23.3168L11.7392 22.2819C11.9026 22.202 12.0973 22.202 12.2607 22.2819L14.3752 23.3168C14.6296 23.4414 14.8978 23.5005 15.1621 23.5005C15.7995 23.5005 16.4108 23.1558 16.7306 22.552L17.8328 20.4729C17.9186 20.3095 18.0727 20.1982 18.254 20.1658L20.573 19.759C21.5239 19.5933 22.1631 18.7136 22.028 17.7581L21.7001 15.4258C21.6746 15.2438 21.7325 15.0631 21.8611 14.9309L23.4975 13.2366C24.1675 12.5435 24.1675 11.4565 23.4976 10.7634ZM22.6441 12.4125L21.0077 14.1057C20.6235 14.5032 20.4479 15.0444 20.525 15.5915L20.853 17.9232C20.8982 18.2419 20.6849 18.5351 20.3686 18.5908L18.0484 18.9975C17.5037 19.0932 17.043 19.4286 16.784 19.9171L15.6819 21.9957C15.5313 22.2808 15.1871 22.3932 14.8968 22.2512L12.7823 21.2157C12.5378 21.0964 12.2689 21.0361 12.0001 21.0361C11.7312 21.0361 11.4623 21.0964 11.2178 21.2163L9.10338 22.2506C8.81421 22.3932 8.46888 22.2808 8.31823 21.9957L7.2161 19.9166C6.95707 19.4275 6.49582 19.0926 5.95057 18.9975L3.63157 18.5902C3.31521 18.5346 3.10193 18.242 3.14655 17.9232L3.4751 15.5915C3.55216 15.0444 3.37657 14.5033 2.99299 14.1063L1.35602 12.4125C1.13295 12.1807 1.13295 11.8192 1.35602 11.5874L2.99243 9.89422C3.37662 9.49672 3.55216 8.95551 3.4751 8.40847L3.14712 6.07672C3.10193 5.75802 3.31516 5.46482 3.63152 5.40918L5.9517 5.0024C6.49638 4.90677 6.95707 4.57129 7.21605 4.0828L8.31818 2.00427C8.46884 1.71918 8.81421 1.60794 9.10334 1.74871L11.2178 2.78422C11.7068 3.02296 12.2932 3.02352 12.7823 2.78366L14.8968 1.74937C15.1865 1.60682 15.5313 1.71922 15.6819 2.00432L16.784 4.08341C17.0431 4.57246 17.5043 4.90743 18.0496 5.00244L20.3686 5.40979C20.6849 5.46543 20.8982 5.75802 20.8536 6.07677L20.525 8.40852C20.448 8.95555 20.6236 9.49673 21.0071 9.89366L22.6441 11.5874C22.8672 11.8192 22.8672 12.1808 22.6441 12.4125Z" fill="#A2A2A2"/>
<path d="M15.9798 8.02025C15.748 7.78846 15.3725 7.78846 15.1407 8.02025L8.02028 15.1407C7.78849 15.3725 7.78849 15.7479 8.02028 15.9797C8.13616 16.0956 8.28799 16.1536 8.43981 16.1536C8.59164 16.1536 8.74347 16.0956 8.85935 15.9797L15.9798 8.85931C16.2115 8.62752 16.2115 8.25205 15.9798 8.02025Z" fill="#A2A2A2"/>
<path d="M11.4089 9.03431C11.4089 7.72471 10.3439 6.65967 9.03431 6.65967C7.72471 6.65967 6.65967 7.72471 6.65967 9.03431C6.65967 10.3439 7.72471 11.4089 9.03431 11.4089C10.3439 11.4089 11.4089 10.3439 11.4089 9.03431ZM7.84645 9.03431C7.84645 8.37951 8.37956 7.8464 9.03436 7.8464C9.68915 7.8464 10.2223 8.37951 10.2223 9.03431C10.2223 9.68911 9.68915 10.2222 9.03436 10.2222C8.37951 10.2222 7.84645 9.68911 7.84645 9.03431Z" fill="#A2A2A2"/>
<path d="M14.9656 12.591C13.6561 12.591 12.591 13.6561 12.591 14.9657C12.591 16.2753 13.6561 17.3403 14.9656 17.3403C16.2752 17.3403 17.3403 16.2753 17.3403 14.9657C17.3403 13.6561 16.2752 12.591 14.9656 12.591ZM14.9656 16.1535C14.3108 16.1535 13.7777 15.6204 13.7777 14.9656C13.7777 14.3108 14.3108 13.7777 14.9656 13.7777C15.6204 13.7777 16.1536 14.3108 16.1536 14.9656C16.1536 15.6204 15.6204 16.1535 14.9656 16.1535Z" fill="#A2A2A2"/>
</g>
<defs>
<clipPath id="clip0_3_188">
<rect width="24" height="24" fill="white" transform="translate(0.5)"/>
</clipPath>
</defs>
</svg>
