<svg width="25" height="24" viewBox="0 0 25 24" fill="none" xmlns="http://www.w3.org/2000/svg">
<path d="M12.3398 12.75C9.16984 12.75 6.58984 10.17 6.58984 7C6.58984 3.83 9.16984 1.25 12.3398 1.25C15.5098 1.25 18.0898 3.83 18.0898 7C18.0898 10.17 15.5098 12.75 12.3398 12.75ZM12.3398 2.75C9.99984 2.75 8.08984 4.66 8.08984 7C8.08984 9.34 9.99984 11.25 12.3398 11.25C14.6798 11.25 16.5898 9.34 16.5898 7C16.5898 4.66 14.6798 2.75 12.3398 2.75Z" fill="#EE1F23"/>
<path d="M20.9299 22.75C20.5199 22.75 20.1799 22.41 20.1799 22C20.1799 18.55 16.66 15.75 12.34 15.75C8.01999 15.75 4.5 18.55 4.5 22C4.5 22.41 4.16 22.75 3.75 22.75C3.34 22.75 3 22.41 3 22C3 17.73 7.18999 14.25 12.34 14.25C17.49 14.25 21.6799 17.73 21.6799 22C21.6799 22.41 21.3399 22.75 20.9299 22.75Z" fill="#EE1F23"/>
</svg>
