<svg width="25" height="24" viewBox="0 0 25 24" fill="none" xmlns="http://www.w3.org/2000/svg">
<g clip-path="url(#clip0_511_426)">
<path d="M17 22.4918H8.75C7.6655 22.4918 6.392 21.7568 5.8505 20.8178L1.7255 13.6748C1.175 12.7208 1.175 11.2808 1.7255 10.326L5.85125 3.18303C6.39275 2.24403 7.66625 1.50903 8.75075 1.50903H17C18.0845 1.50903 19.358 2.24403 19.8995 3.18303L24.0245 10.326C24.575 11.28 24.575 12.72 24.0245 13.6748L19.8987 20.8178C19.358 21.7568 18.0837 22.4918 17 22.4918ZM8.75 3.00828C8.19125 3.00828 7.4285 3.44853 7.1495 3.93228L3.02375 11.0753C2.74475 11.559 2.74475 12.4403 3.02375 12.924L7.14875 20.067C7.4285 20.5515 8.19125 20.991 8.74925 20.991H17C17.5587 20.991 18.3215 20.5508 18.6005 20.067L22.7262 12.924C23.0052 12.4403 23.0052 11.559 22.7262 11.0753L18.6012 3.93228C18.3215 3.44778 17.5587 3.00828 17.0007 3.00828H8.75ZM12.875 16.437C10.4277 16.437 8.43725 14.4465 8.43725 12C8.43725 9.55353 10.4277 7.56303 12.875 7.56303C15.3222 7.56303 17.3127 9.55353 17.3127 12C17.3127 14.4465 15.3222 16.437 12.875 16.437ZM12.875 9.06303C11.255 9.06303 9.93725 10.3808 9.93725 12C9.93725 13.6193 11.255 14.937 12.875 14.937C14.495 14.937 15.8127 13.6193 15.8127 12C15.8127 10.3808 14.495 9.06303 12.875 9.06303Z" fill="#A2A2A2"/>
<mask id="mask0_511_426" style="mask-type:luminance" maskUnits="userSpaceOnUse" x="-327" y="-320" width="683" height="683">
<path d="M-327 -320H355.667V362.667H-327V-320Z" fill="white"/>
</mask>
<g mask="url(#mask0_511_426)">
<path d="M311.764 -43.3548H311.655C296.963 -43.3548 284.044 -52.8508 279.412 -66.7921C275.179 -79.5308 270.054 -91.8641 264.108 -103.715C257.51 -116.871 259.898 -132.747 270.304 -143.155L270.391 -143.24C283.63 -156.48 283.63 -177.945 270.391 -191.187L226.852 -234.723C213.614 -247.963 192.147 -247.963 178.907 -234.723L178.822 -234.637C168.414 -224.229 152.538 -221.841 139.382 -228.441C127.53 -234.385 115.198 -239.512 102.459 -243.745C88.5163 -248.379 79.0216 -261.297 79.0216 -275.988V-276.097C79.0216 -294.821 63.8429 -310 45.1189 -310H-16.4517C-35.1757 -310 -50.3544 -294.821 -50.3544 -276.097V-275.988C-50.3544 -261.297 -59.8504 -248.379 -73.7917 -243.745C-86.5317 -239.512 -98.8637 -234.385 -110.714 -228.441C-123.872 -221.841 -139.746 -224.229 -150.154 -234.637L-150.24 -234.723C-163.481 -247.963 -184.946 -247.963 -198.186 -234.723L-241.724 -191.187C-254.962 -177.945 -254.962 -156.48 -241.724 -143.24L-241.638 -143.155C-231.23 -132.747 -228.842 -116.871 -235.442 -103.715C-241.386 -91.8628 -246.513 -79.5308 -250.745 -66.7921C-255.378 -52.8508 -268.297 -43.3548 -282.988 -43.3548H-283.097C-301.821 -43.3548 -317 -28.1761 -317 -9.45213V52.1185C-317 70.8425 -301.821 86.0212 -283.097 86.0212H-282.988C-268.297 86.0212 -255.378 95.5172 -250.745 109.459C-246.513 122.199 -241.386 134.531 -235.442 146.381C-228.842 159.537 -231.23 175.413 -241.638 185.821L-241.724 185.907C-254.962 199.147 -254.962 220.613 -241.724 233.853L-198.186 277.391C-184.946 290.629 -163.481 290.629 -150.24 277.391L-150.154 277.305C-139.746 266.896 -123.872 264.509 -110.714 271.109C-98.8637 277.053 -86.5317 282.179 -73.7917 286.412C-59.8504 291.045 -50.3544 303.964 -50.3544 318.655V318.764C-50.3544 337.488 -35.1757 352.667 -16.4517 352.667H45.1189C63.8429 352.667 79.0216 337.488 79.0216 318.764V318.655C79.0216 303.964 88.5163 291.045 102.459 286.412C115.198 282.179 127.53 277.053 139.382 271.109C152.538 264.509 168.414 266.896 178.822 277.305L178.907 277.391C192.147 290.629 213.614 290.629 226.852 277.391L270.391 233.853C283.63 220.613 283.63 199.147 270.391 185.907L270.304 185.821C259.898 175.413 257.51 159.537 264.108 146.381C270.054 134.531 275.179 122.199 279.412 109.459C284.044 95.5172 296.963 86.0212 311.655 86.0212H311.764C330.488 86.0212 345.667 70.8425 345.667 52.1185V-9.45213C345.667 -28.1761 330.488 -43.3548 311.764 -43.3548Z" stroke="black" stroke-width="15" stroke-miterlimit="10" stroke-linecap="round" stroke-linejoin="round"/>
<path d="M172.432 141.765C197.925 108.347 213.067 66.6088 213.067 21.3328C213.067 -88.4245 124.091 -177.399 14.3333 -177.399C-30.9414 -177.399 -72.68 -162.259 -106.096 -136.767M-139.985 -103.898C-167.756 -69.7192 -184.4 -26.1365 -184.4 21.3328C-184.4 131.09 -95.424 220.066 14.3333 220.066C61.9627 220.066 105.677 203.311 139.907 175.374M14.3333 155.879C-59.9747 155.879 -120.213 95.6408 -120.213 21.3328C-120.213 -52.9738 -59.9747 -113.213 14.3333 -113.213C88.64 -113.213 148.879 -52.9738 148.879 21.3328C148.879 95.6408 88.64 155.879 14.3333 155.879Z" stroke="black" stroke-width="15" stroke-miterlimit="10" stroke-linecap="round" stroke-linejoin="round"/>
</g>
</g>
<defs>
<clipPath id="clip0_511_426">
<rect width="24" height="24" fill="white" transform="translate(0.875)"/>
</clipPath>
</defs>
</svg>
