<svg width="75" height="75" viewBox="0 0 75 75" fill="none" xmlns="http://www.w3.org/2000/svg">
<g clip-path="url(#clip0_102_682)">
<path d="M75 37.5C75 58.2109 58.2109 75 37.5 75C16.7891 75 0 58.2109 0 37.5C0 16.7891 16.7891 0 37.5 0C58.2109 0 75 16.7891 75 37.5Z" fill="#60DAA8"/>
<path d="M34.7958 62.8407C37.8902 59.9081 39.2624 55.8569 39.2624 55.8569L34.2751 51.6226C34.2751 51.6226 28.1467 39.8495 28.1845 39.8793C14.502 23.968 24.8314 2.39529 24.9481 2.1521C10.4118 7.31567 0 21.1928 0 37.5C0 56.8011 14.5849 72.6969 33.3332 74.7712C30.8905 71.0713 31.4472 66.0147 34.7958 62.8407Z" fill="#00CE8E"/>
<path d="M35.2077 57.657C34.0393 57.657 32.8646 57.2834 31.8747 56.5195L14.197 42.8833C11.8086 41.0413 11.3657 37.6116 13.2082 35.2232C15.0501 32.8354 18.4799 32.3925 20.8683 34.2344L34.5451 44.7853L53.4153 23.901C55.4375 21.6631 58.8907 21.488 61.1292 23.5107C63.3671 25.5323 63.5422 28.9861 61.5194 31.224L39.2624 55.8569C38.1889 57.0448 36.7035 57.657 35.2077 57.657Z" fill="#FFFCDC"/>
</g>
<defs>
<clipPath id="clip0_102_682">
<rect width="75" height="75" fill="white"/>
</clipPath>
</defs>
</svg>
