<svg width="17" height="20" viewBox="0 0 17 20" fill="none" xmlns="http://www.w3.org/2000/svg">
<path d="M15.9036 2.65058H14.2168V0.963865C14.2168 0.43371 13.7831 0 13.2532 0H0.963826C0.43371 0 0 0.43371 0 0.963865V16.3855C0 16.9156 0.43371 17.3494 0.963865 17.3494H2.65062V19.0361C2.65062 19.5663 3.08414 20 3.61449 20H11.807C12.3369 20 13.0868 19.7027 13.4726 19.3395L16.1651 16.8051C16.5513 16.442 16.867 15.7109 16.867 15.1808L16.8675 3.61452C16.8674 3.08433 16.4337 2.65058 15.9036 2.65058ZM2.65054 3.61449V16.6265H0.963826C0.833241 16.6265 0.722889 16.5161 0.722889 16.3856V0.963865C0.722889 0.83328 0.833241 0.722928 0.963826 0.722928H13.2532C13.3836 0.722928 13.4942 0.83328 13.4942 0.963865V2.65062H3.61441C3.08406 2.65062 2.65054 3.08433 2.65054 3.61449ZM15.6696 16.2788L12.9771 18.813C12.9219 18.8648 12.8501 18.9157 12.7708 18.9641V16.747C12.7708 16.5814 12.8376 16.4325 12.9477 16.3216C13.0588 16.2115 13.2077 16.1446 13.3732 16.1446H15.7841C15.7467 16.1954 15.7084 16.2421 15.6696 16.2788ZM16.144 15.1807C16.144 15.2522 16.131 15.3351 16.1113 15.4216H13.3732C12.6419 15.4231 12.0494 16.0156 12.0479 16.7469V19.2479C11.9619 19.2652 11.879 19.277 11.8069 19.277H3.61441V19.277C3.48355 19.277 3.37347 19.1667 3.37347 19.0361V3.61445C3.37347 3.48386 3.48359 3.37351 3.61441 3.37351H15.9035C16.0341 3.37351 16.1445 3.48386 16.1445 3.61445L16.144 15.1807Z" fill="#EE1F23"/>
<path d="M13.2532 6.02417H6.26525C6.06549 6.02417 5.90381 6.18585 5.90381 6.38561C5.90381 6.58538 6.06553 6.74706 6.26525 6.74706H13.2532C13.4527 6.74706 13.6146 6.58538 13.6146 6.38561C13.6146 6.18585 13.4527 6.02417 13.2532 6.02417Z" fill="#EE1F23"/>
<path d="M13.2532 10.8433H6.26525C6.06549 10.8433 5.90381 11.0049 5.90381 11.2047C5.90381 11.4045 6.06553 11.5662 6.26525 11.5662H13.2532C13.4527 11.5662 13.6146 11.4045 13.6146 11.2047C13.6146 11.0049 13.4527 10.8433 13.2532 10.8433Z" fill="#EE1F23"/>
<path d="M10.1206 13.2529H6.26525C6.06549 13.2529 5.90381 13.4146 5.90381 13.6144C5.90381 13.8141 6.06549 13.9758 6.26525 13.9758H10.1206C10.3202 13.9758 10.4818 13.8141 10.4818 13.6144C10.4818 13.4146 10.3202 13.2529 10.1206 13.2529Z" fill="#EE1F23"/>
<path d="M13.2532 8.43359H6.26525C6.06549 8.43359 5.90381 8.59527 5.90381 8.79504C5.90381 8.9948 6.06553 9.15648 6.26525 9.15648H13.2532C13.4527 9.15648 13.6146 8.9948 13.6146 8.79504C13.6146 8.59527 13.4527 8.43359 13.2532 8.43359Z" fill="#EE1F23"/>
</svg>
