<svg width="35" height="35" viewBox="0 0 35 35" fill="none" xmlns="http://www.w3.org/2000/svg">
<rect x="0.5" y="0.5" width="34" height="34" rx="5.5" fill="url(#paint0_linear_9_228)"/>
<rect x="0.5" y="0.5" width="34" height="34" rx="5.5" stroke="#F2F2F7"/>
<path d="M21.6332 23.3223C21.5425 23.3223 21.4515 23.3004 21.3681 23.256L17.4074 21.1477L13.4467 23.256C13.2547 23.3582 13.0221 23.3412 12.8466 23.2121C12.6712 23.083 12.5833 22.8643 12.6199 22.6479L13.3764 18.1824L10.1721 15.02C10.0168 14.8667 9.96088 14.6374 10.0279 14.4286C10.0949 14.2197 10.2732 14.0675 10.4879 14.0359L14.9161 13.3844L16.8964 9.32159C16.9924 9.12466 17.1905 9 17.4074 9C17.6243 9 17.8224 9.12466 17.9184 9.32159L19.8987 13.3844L24.3269 14.0359C24.5416 14.0675 24.7199 14.2197 24.7869 14.4285C24.8539 14.6374 24.7981 14.8666 24.6427 15.0199L21.4384 18.1824L22.1949 22.6478C22.2315 22.8642 22.1437 23.083 21.9682 23.2121C21.8689 23.2851 21.7513 23.3223 21.6332 23.3223Z" fill="white"/>
<defs>
<linearGradient id="paint0_linear_9_228" x1="17.5" y1="0" x2="17.5" y2="35" gradientUnits="userSpaceOnUse">
<stop stop-color="#29BAE2"/>
<stop offset="1" stop-color="#A0EBFF"/>
</linearGradient>
</defs>
</svg>
