<svg width="15" height="21" viewBox="0 0 15 21" fill="none" xmlns="http://www.w3.org/2000/svg">
<path d="M7.5 0C4.34146 0 1.77172 2.56953 1.77172 5.72807V10.0393H1.36761C0.613321 10.0393 0 10.6528 0 11.4071V19.5529C0 20.3072 0.613321 20.9207 1.36761 20.9207H13.632C14.3863 20.9207 15 20.3072 15 19.5529V11.4071C15 10.6528 14.3863 10.0393 13.632 10.0393H13.2279V5.72807C13.2279 2.56953 10.6585 0 7.5 0ZM2.60855 5.72807C2.60855 3.03105 4.80278 0.836829 7.5 0.836829C10.1968 0.836829 12.391 3.03105 12.391 5.72807V10.0393H10.9062V5.72787C10.9062 3.8497 9.37796 2.32171 7.5 2.32171C5.62163 2.32171 4.09343 3.8497 4.09343 5.72787V10.0393H2.60855V5.72807ZM10.0693 10.0393H4.93026V5.72787C4.93026 4.31122 6.08295 3.15854 7.5 3.15854C8.91664 3.15854 10.0693 4.31122 10.0693 5.72787V10.0393ZM14.1632 11.4071V19.5529C14.1632 19.8457 13.925 20.0839 13.632 20.0839H1.36761C1.07505 20.0839 0.836829 19.8457 0.836829 19.5529V11.4071C0.836829 11.1143 1.07505 10.8761 1.36761 10.8761H2.19014H4.51185H10.4877H12.8095H13.632C13.925 10.8761 14.1632 11.1143 14.1632 11.4071Z" fill="#EE1F23"/>
</svg>
