<svg width="12" height="12" viewBox="0 0 12 12" fill="none" xmlns="http://www.w3.org/2000/svg">
<path d="M11.4002 11.999C11.3214 11.9991 11.2434 11.9836 11.1706 11.9534C11.0978 11.9232 11.0316 11.879 10.976 11.8232L0.175755 1.02295C0.0664577 0.909788 0.00597982 0.758224 0.0073469 0.600903C0.00871398 0.443581 0.0718166 0.29309 0.183064 0.181843C0.294311 0.0705959 0.444802 0.00749328 0.602123 0.0061262C0.759445 0.00475912 0.911009 0.065237 1.02417 0.174534L11.8244 10.9748C11.9083 11.0587 11.9654 11.1656 11.9885 11.2819C12.0117 11.3983 11.9998 11.5189 11.9544 11.6285C11.909 11.7382 11.8321 11.8319 11.7335 11.8978C11.6348 11.9637 11.5189 11.9989 11.4002 11.999Z" fill="#333333"/>
<path d="M0.599933 11.999C0.481274 11.999 0.365283 11.9638 0.266626 11.8979C0.167969 11.8319 0.0910761 11.7382 0.0456691 11.6286C0.000262171 11.519 -0.0116201 11.3983 0.0115249 11.282C0.0346699 11.1656 0.0918031 11.0587 0.1757 10.9748L10.9759 0.174534C11.0891 0.065237 11.2407 0.00475912 11.398 0.0061262C11.5553 0.00749328 11.7058 0.0705959 11.817 0.181843C11.9283 0.29309 11.9914 0.443581 11.9928 0.600903C11.9941 0.758224 11.9336 0.909788 11.8243 1.02295L1.02412 11.8232C0.968482 11.879 0.902366 11.9233 0.829571 11.9534C0.756775 11.9836 0.678735 11.9991 0.599933 11.999Z" fill="#333333"/>
</svg>
