<svg width="15" height="15" viewBox="0 0 15 15" fill="none" xmlns="http://www.w3.org/2000/svg">
<g clip-path="url(#clip0_3_254)">
<mask id="mask0_3_254" style="mask-type:luminance" maskUnits="userSpaceOnUse" x="0" y="0" width="15" height="15">
<path d="M0 0H14.8805V15H0V0Z" fill="white"/>
</mask>
<g mask="url(#mask0_3_254)">
<path fill-rule="evenodd" clip-rule="evenodd" d="M0.1816 3.30806C0.423732 3.06398 0.816306 3.06398 1.05844 3.30806L5.27017 7.55363L7.93185 4.87056C8.17397 4.62648 8.56657 4.62648 8.80869 4.87056L14.6989 10.8081C14.941 11.0521 14.941 11.4479 14.6989 11.6919C14.4568 11.936 14.0642 11.936 13.822 11.6919L8.37027 6.19638L5.70859 8.87944C5.46646 9.1235 5.07388 9.1235 4.83175 8.87944L0.1816 4.19194C-0.0605332 3.94786 -0.0605332 3.55214 0.1816 3.30806Z" fill="#C11313"/>
<path fill-rule="evenodd" clip-rule="evenodd" d="M14.2605 6.875C14.6029 6.875 14.8805 7.15481 14.8805 7.5V11.25C14.8805 11.5952 14.6029 11.875 14.2605 11.875H10.5404C10.1979 11.875 9.92035 11.5952 9.92035 11.25C9.92035 10.9048 10.1979 10.625 10.5404 10.625H13.6405V7.5C13.6405 7.15481 13.9181 6.875 14.2605 6.875Z" fill="#C11313"/>
</g>
</g>
<defs>
<clipPath id="clip0_3_254">
<rect width="14.8805" height="15" fill="white"/>
</clipPath>
</defs>
</svg>
