<svg width="22" height="22" viewBox="0 0 22 22" fill="none" xmlns="http://www.w3.org/2000/svg">
<path d="M8.96953 11.3999H8.23047C6.31352 11.4021 4.47571 12.1646 3.12022 13.5201C1.76472 14.8756 1.00223 16.7134 1 18.6304V19.0819C1.00056 19.5904 1.20281 20.078 1.56238 20.4375C1.92194 20.7971 2.40946 20.9993 2.91797 20.9999H14.282C14.7905 20.9993 15.2781 20.7971 15.6376 20.4375C15.9972 20.078 16.1994 19.5904 16.2 19.0819V18.6304C16.1978 16.7134 15.4353 14.8756 14.0798 13.5201C12.7243 12.1646 10.8865 11.4021 8.96953 11.3999ZM15.4 19.0819C15.3997 19.3783 15.2818 19.6625 15.0722 19.8721C14.8626 20.0817 14.5784 20.1996 14.282 20.1999H2.91797C2.62157 20.1996 2.33742 20.0817 2.12783 19.8721C1.91825 19.6625 1.80035 19.3783 1.8 19.0819V18.6304C1.80189 16.9255 2.47999 15.291 3.68553 14.0854C4.89106 12.8799 6.52558 12.2018 8.23047 12.1999H8.96953C10.6744 12.2018 12.3089 12.8799 13.5145 14.0854C14.72 15.291 15.3981 16.9255 15.4 18.6304V19.0819Z" fill="#EE1F23" stroke="#EE1F23" stroke-width="0.2"/>
<path d="M8.59995 9.8C9.47019 9.8 10.3209 9.54195 11.0445 9.05847C11.768 8.57499 12.332 7.8878 12.665 7.08381C12.998 6.27981 13.0852 5.39512 12.9154 4.5416C12.7456 3.68809 12.3266 2.90408 11.7112 2.28873C11.0959 1.67338 10.3119 1.25432 9.45835 1.08455C8.60483 0.914772 7.72014 1.00191 6.91614 1.33493C6.11215 1.66796 5.42496 2.23192 4.94148 2.95549C4.45801 3.67907 4.19995 4.52976 4.19995 5.4C4.20134 6.56653 4.66535 7.68488 5.49021 8.50974C6.31507 9.3346 7.43342 9.79862 8.59995 9.8ZM8.59995 1.8C9.31196 1.8 10.008 2.01114 10.6 2.40671C11.192 2.80228 11.6534 3.36453 11.9259 4.02234C12.1984 4.68016 12.2697 5.404 12.1308 6.10233C11.9919 6.80066 11.649 7.44212 11.1455 7.94559C10.6421 8.44906 10.0006 8.79192 9.30228 8.93083C8.60395 9.06974 7.88011 8.99845 7.22229 8.72597C6.56448 8.45349 6.00223 7.99207 5.60666 7.40006C5.21109 6.80804 4.99995 6.11202 4.99995 5.4C5.00099 4.44554 5.38061 3.53047 6.05552 2.85557C6.73042 2.18066 7.64549 1.80104 8.59995 1.8Z" fill="#EE1F23" stroke="#EE1F23" stroke-width="0.2"/>
<path d="M20.6 9.80005H14.2C14.094 9.80005 13.9922 9.84219 13.9172 9.91721C13.8422 9.99222 13.8 10.094 13.8 10.2C13.8 10.3061 13.8422 10.4079 13.9172 10.4829C13.9922 10.5579 14.094 10.6 14.2 10.6H20.6C20.7061 10.6 20.8079 10.5579 20.8829 10.4829C20.9579 10.4079 21 10.3061 21 10.2C21 10.094 20.9579 9.99222 20.8829 9.91721C20.8079 9.84219 20.7061 9.80005 20.6 9.80005Z" fill="#EE1F23" stroke="#EE1F23" stroke-width="0.2"/>
</svg>
