<svg width="15" height="15" viewBox="0 0 15 15" fill="none" xmlns="http://www.w3.org/2000/svg">
<path d="M13.125 11.875H1.875C1.70924 11.875 1.55027 11.9408 1.43306 12.0581C1.31585 12.1753 1.25 12.3342 1.25 12.5C1.25 12.6658 1.31585 12.8247 1.43306 12.9419C1.55027 13.0592 1.70924 13.125 1.875 13.125H13.125C13.2908 13.125 13.4497 13.0592 13.5669 12.9419C13.6842 12.8247 13.75 12.6658 13.75 12.5C13.75 12.3342 13.6842 12.1753 13.5669 12.0581C13.4497 11.9408 13.2908 11.875 13.125 11.875Z" fill="white"/>
<path d="M7.50012 1.25C7.33436 1.25 7.17538 1.31585 7.05817 1.43306C6.94096 1.55027 6.87512 1.70924 6.87512 1.875V8.49375L4.81887 6.43125C4.70118 6.31356 4.54155 6.24744 4.37512 6.24744C4.20868 6.24744 4.04906 6.31356 3.93137 6.43125C3.81368 6.54894 3.74756 6.70856 3.74756 6.875C3.74756 7.04144 3.81368 7.20106 3.93137 7.31875L7.05637 10.4437C7.11447 10.5023 7.18359 10.5488 7.25976 10.5806C7.33592 10.6123 7.41761 10.6286 7.50012 10.6286C7.58262 10.6286 7.66431 10.6123 7.74048 10.5806C7.81664 10.5488 7.88576 10.5023 7.94387 10.4437L11.0689 7.31875C11.1271 7.26048 11.1734 7.19129 11.2049 7.11516C11.2364 7.03902 11.2527 6.95741 11.2527 6.875C11.2527 6.79259 11.2364 6.71098 11.2049 6.63484C11.1734 6.55871 11.1271 6.48952 11.0689 6.43125C11.0106 6.37298 10.9414 6.32675 10.8653 6.29521C10.7891 6.26367 10.7075 6.24744 10.6251 6.24744C10.5427 6.24744 10.4611 6.26367 10.385 6.29521C10.3088 6.32675 10.2396 6.37298 10.1814 6.43125L8.12512 8.49375V1.875C8.12512 1.70924 8.05927 1.55027 7.94206 1.43306C7.82485 1.31585 7.66588 1.25 7.50012 1.25Z" fill="white"/>
</svg>
