<svg width="24" height="24" viewBox="0 0 24 24" fill="none" xmlns="http://www.w3.org/2000/svg">
<path d="M4.76 18.81C4.76 18.81 4.84 18.81 4.87 18.81L7.8 18.54C8.21 18.5 8.59 18.32 8.88 18.03L19.94 6.97001C20.46 6.45001 20.75 5.76001 20.75 5.03001C20.75 4.30001 20.46 3.61001 19.94 3.09001L19.23 2.38001C18.19 1.34001 16.38 1.34001 15.34 2.38001L13.93 3.79001L4.29 13.43C4 13.72 3.82 14.1 3.79 14.51L3.52 17.44C3.49 17.81 3.62 18.17 3.88 18.44C4.12 18.68 4.43 18.81 4.76 18.81ZM17.29 3.07001C17.61 3.07001 17.93 3.19001 18.17 3.44001L18.88 4.15001C19.12 4.39001 19.25 4.70001 19.25 5.03001C19.25 5.36001 19.12 5.68001 18.88 5.91001L18 6.79001L15.53 4.32001L16.41 3.44001C16.65 3.20001 16.97 3.07001 17.29 3.07001ZM5.28 14.65C5.28 14.59 5.31 14.54 5.35 14.5L14.46 5.38001L16.93 7.85001L7.82 16.96C7.82 16.96 7.72 17.03 7.67 17.03L5.04 17.27L5.28 14.64V14.65ZM22.75 22C22.75 22.41 22.41 22.75 22 22.75H2C1.59 22.75 1.25 22.41 1.25 22C1.25 21.59 1.59 21.25 2 21.25H22C22.41 21.25 22.75 21.59 22.75 22Z" fill="white"/>
</svg>
