<svg width="18" height="18" viewBox="0 0 18 18" fill="none" xmlns="http://www.w3.org/2000/svg">
<path d="M2.9665 14.675C2.9665 14.675 3.03317 14.675 3.05817 14.675L5.49984 14.45C5.8415 14.4167 6.15817 14.2667 6.39984 14.025L15.6165 4.80837C16.0498 4.37504 16.2915 3.80004 16.2915 3.19171C16.2915 2.58337 16.0498 2.00837 15.6165 1.57504L15.0248 0.983374C14.1582 0.116707 12.6498 0.116707 11.7832 0.983374L10.6082 2.15837L2.57484 10.1917C2.33317 10.4334 2.18317 10.75 2.15817 11.0917L1.93317 13.5334C1.90817 13.8417 2.0165 14.1417 2.23317 14.3667C2.43317 14.5667 2.6915 14.675 2.9665 14.675ZM13.4082 1.55837C13.6748 1.55837 13.9415 1.65837 14.1415 1.86671L14.7332 2.45837C14.9332 2.65837 15.0415 2.91671 15.0415 3.19171C15.0415 3.46671 14.9332 3.73337 14.7332 3.92504L13.9998 4.65837L11.9415 2.60004L12.6748 1.86671C12.8748 1.66671 13.1415 1.55837 13.4082 1.55837ZM3.39984 11.2084C3.39984 11.1584 3.42484 11.1167 3.45817 11.0834L11.0498 3.48337L13.1082 5.54171L5.5165 13.1334C5.5165 13.1334 5.43317 13.1917 5.3915 13.1917L3.19984 13.3917L3.39984 11.2V11.2084ZM17.9582 17.3334C17.9582 17.675 17.6748 17.9584 17.3332 17.9584H0.666504C0.324837 17.9584 0.0415039 17.675 0.0415039 17.3334C0.0415039 16.9917 0.324837 16.7084 0.666504 16.7084H17.3332C17.6748 16.7084 17.9582 16.9917 17.9582 17.3334Z" fill="#777777"/>
</svg>
