<svg width="20" height="12" viewBox="0 0 20 12" fill="none" xmlns="http://www.w3.org/2000/svg">
<path d="M19.944 5.73991C18.9526 4.02629 17.5271 2.58901 15.8215 1.58358C14.0641 0.547593 12.0511 0 10 0C7.94894 0 5.93584 0.547593 4.17842 1.58358C2.47284 2.58905 1.04732 4.02629 0.0559865 5.73991C-0.0186622 5.86902 -0.0186622 6.02813 0.0559865 6.15724C1.04732 7.87091 2.47284 9.30819 4.17842 10.3136C5.93588 11.3496 7.94894 11.8972 10 11.8972C12.0511 11.8972 14.0641 11.3496 15.8215 10.3136C17.5271 9.30815 18.9526 7.87091 19.944 6.15724C20.0187 6.02809 20.0187 5.86902 19.944 5.73991ZM15.3983 9.5957C13.769 10.5561 11.9023 11.0638 9.99996 11.0638C8.0976 11.0638 6.23088 10.5561 4.6016 9.5957C3.08907 8.70406 1.81395 7.44637 0.9012 5.94853C1.81395 4.45074 3.08907 3.19305 4.6016 2.30141C6.23088 1.34097 8.0976 0.833281 9.99996 0.833281C11.9023 0.833281 13.769 1.34097 15.3983 2.30141C16.9108 3.19305 18.1859 4.45069 19.0987 5.94853C18.1859 7.44637 16.9108 8.70406 15.3983 9.5957Z" fill="black"/>
<path d="M9.99993 2.20447C7.93541 2.20447 6.25586 3.88402 6.25586 5.94854C6.25586 8.01306 7.93541 9.69265 9.99993 9.69265C12.0644 9.69265 13.744 8.01306 13.744 5.94854C13.744 3.88406 12.0644 2.20447 9.99993 2.20447ZM9.99993 8.85933C8.39494 8.85933 7.08918 7.55357 7.08918 5.94854C7.08918 4.34355 8.39494 3.03779 9.99993 3.03779C11.605 3.03779 12.9107 4.34355 12.9107 5.94854C12.9107 7.55357 11.605 8.85933 9.99993 8.85933Z" fill="black"/>
</svg>
