<svg width="16" height="9" viewBox="0 0 16 9" fill="none" xmlns="http://www.w3.org/2000/svg">
<path fill-rule="evenodd" clip-rule="evenodd" d="M15.4932 0.308056C15.7484 0.552137 15.7484 0.947862 15.4932 1.19194L9.28472 7.12944C9.02952 7.3735 8.61571 7.3735 8.36051 7.12944L5.55498 4.44637L1.11564 8.69194C0.860421 8.936 0.446631 8.936 0.191414 8.69194C-0.0638045 8.44788 -0.0638045 8.05212 0.191414 7.80806L5.09286 3.12056C5.34809 2.87648 5.76187 2.87648 6.0171 3.12056L8.82261 5.80363L14.569 0.308056C14.8242 0.0639813 15.238 0.0639813 15.4932 0.308056Z" fill="#1ABD00"/>
<path fill-rule="evenodd" clip-rule="evenodd" d="M10.4564 0.75C10.4564 0.404825 10.749 0.125 11.1099 0.125H15.0311C15.3921 0.125 15.6846 0.404825 15.6846 0.75V4.5C15.6846 4.84519 15.3921 5.125 15.0311 5.125C14.6702 5.125 14.3776 4.84519 14.3776 4.5V1.375H11.1099C10.749 1.375 10.4564 1.09518 10.4564 0.75Z" fill="#1ABD00"/>
</svg>
