<svg width="20" height="20" viewBox="0 0 20 20" fill="none" xmlns="http://www.w3.org/2000/svg">
<g clip-path="url(#clip0_556_883)">
<path d="M12.5156 14.961C12.2394 14.961 12.0156 15.1848 12.0156 15.461V17.461C12.0146 18.2891 11.3436 18.9602 10.5156 18.9611H3.51563C2.68753 18.9602 2.01645 18.2891 2.01554 17.461V2.46094C2.01645 1.633 2.68753 0.961917 3.51563 0.961001H10.5156C11.3437 0.961917 12.0148 1.633 12.0156 2.46094V4.46092C12.0156 4.7371 12.2396 4.96095 12.5156 4.96095C12.7918 4.96095 13.0156 4.7371 13.0156 4.46092V2.46094C13.0143 1.08078 11.8958 -0.0376892 10.5156 -0.0390625H3.51563C2.13562 -0.037384 1.0173 1.08094 1.01562 2.46094V17.461C1.0173 18.841 2.13562 19.9593 3.51563 19.961H10.5156C11.8958 19.9595 13.0143 18.841 13.0156 17.461V15.4609C13.0156 15.1848 12.7918 14.961 12.5156 14.961Z" fill="#EE1F23"/>
<path d="M18.8692 9.6074L15.8692 6.60737C15.6705 6.41556 15.354 6.42105 15.1622 6.61972C14.975 6.81351 14.975 7.12067 15.1622 7.31446L17.3085 9.46092H6.5155C6.23947 9.46092 6.01562 9.68477 6.01562 9.96095C6.01562 10.2371 6.23947 10.461 6.5155 10.461H17.3085L15.1621 12.6074C14.9634 12.7992 14.9579 13.1159 15.1499 13.3144C15.3417 13.5131 15.6581 13.5185 15.8568 13.3267C15.8609 13.3226 15.865 13.3187 15.8692 13.3144L18.8691 10.3143C19.0644 10.1193 19.0645 9.80302 18.8694 9.60771C18.8694 9.60756 18.8692 9.60756 18.8692 9.6074Z" fill="#EE1F23"/>
</g>
<defs>
<clipPath id="clip0_556_883">
<rect width="20" height="20" fill="white"/>
</clipPath>
</defs>
</svg>
