<svg width="13" height="17" viewBox="0 0 13 17" fill="none" xmlns="http://www.w3.org/2000/svg">
<path d="M1.88731 10.7926C1.71398 10.7926 1.54211 10.7165 1.42498 10.5707C-0.161994 8.58854 -0.449217 5.84262 0.693166 3.57531C0.839884 3.28394 1.19514 3.16562 1.48798 3.31323C1.77964 3.46024 1.89708 3.81609 1.75006 4.10775C0.815332 5.96272 1.05049 8.20962 2.34876 9.8312C2.55287 10.0862 2.51175 10.4586 2.25647 10.6627C2.14762 10.75 2.01717 10.7926 1.88731 10.7926Z" fill="#333333"/>
<path d="M2.24464 2.99066C2.09201 2.99066 1.93967 2.93209 1.82372 2.81495C1.59417 2.58245 1.59624 2.20797 1.82874 1.97843L2.03906 1.77048C2.27156 1.54094 2.64604 1.54271 2.87588 1.77551C3.10542 2.00801 3.10335 2.38249 2.87085 2.61203L2.66054 2.81998C2.54547 2.93387 2.39491 2.99066 2.24464 2.99066Z" fill="#333333"/>
<path d="M11.1231 10.7926C10.9936 10.7926 10.8628 10.75 10.7537 10.6627C10.4987 10.4586 10.4573 10.0862 10.6614 9.83123C12.0957 8.04016 12.2087 5.45722 10.9374 3.5502C9.48913 1.37783 6.51693 0.573254 4.16975 1.7186C3.87572 1.86176 3.52224 1.7396 3.37877 1.44646C3.23531 1.15273 3.35718 0.798654 3.65091 0.655191C6.56662 -0.768203 10.1221 0.194629 11.9218 2.89352C13.4762 5.22472 13.3378 8.38151 11.5852 10.5704C11.4683 10.7166 11.2965 10.7926 11.1231 10.7926Z" fill="#333333"/>
<path d="M6.51034 10.046C6.51004 10.046 6.51004 10.046 6.51034 10.046C5.63921 10.046 4.80564 9.73545 4.16345 9.17135C2.94298 8.09937 2.60725 6.28079 3.36479 4.84704C3.97207 3.69815 5.21118 2.95569 6.52188 2.95569C6.8088 2.95569 7.09484 2.99089 7.37142 3.0604C8.92644 3.45056 10.0546 4.89851 10.0546 6.50353C10.0546 7.65212 9.49438 8.73505 8.55669 9.4003C7.96095 9.82271 7.25369 10.046 6.51034 10.046ZM6.52188 4.13889C5.64453 4.13889 4.8157 4.63377 4.41104 5.39989C3.90611 6.35503 4.13062 7.56752 4.94437 8.28247C5.37032 8.65666 5.92643 8.86283 6.51004 8.86283C7.00669 8.86283 7.4779 8.71493 7.87221 8.4354C8.49812 7.9917 8.87172 7.26965 8.87172 6.50353C8.87172 5.43361 8.11979 4.46812 7.0836 4.20811C6.9008 4.16226 6.71178 4.13889 6.52188 4.13889Z" fill="#333333"/>
<path d="M6.50503 16.5607C6.37547 16.5607 6.24473 16.5181 6.13557 16.4308C5.88059 16.2267 5.83918 15.8543 6.04328 15.5993L10.6613 9.83123C10.8657 9.57595 11.2376 9.53513 11.4931 9.73923C11.7481 9.94334 11.7895 10.3157 11.5854 10.5707L6.96737 16.3388C6.85023 16.4847 6.67837 16.5607 6.50503 16.5607Z" fill="#333333"/>
<path d="M6.50566 16.5607C6.33232 16.5607 6.16046 16.4847 6.04332 16.3388L1.42527 10.5707C1.22117 10.3157 1.26229 9.94334 1.51756 9.73923C1.77225 9.53513 2.14466 9.57595 2.34936 9.83123L6.9674 15.5993C7.1715 15.8543 7.13039 16.2267 6.87511 16.4308C6.76567 16.5181 6.63522 16.5607 6.50566 16.5607Z" fill="#333333"/>
</svg>
