<svg width="35" height="35" viewBox="0 0 35 35" fill="none" xmlns="http://www.w3.org/2000/svg">
<rect x="0.5" y="0.5" width="34" height="34" rx="5.5" fill="url(#paint0_linear_9_200)"/>
<rect x="0.5" y="0.5" width="34" height="34" rx="5.5" stroke="#F2F2F7"/>
<mask id="mask0_9_200" style="mask-type:luminance" maskUnits="userSpaceOnUse" x="9" y="8" width="18" height="18">
<path d="M10.3438 9.25H25.6819V24.6562H10.3438V9.25Z" fill="white" stroke="white"/>
</mask>
<g mask="url(#mask0_9_200)">
<path fill-rule="evenodd" clip-rule="evenodd" d="M25.9825 12.3682C26.2484 12.6352 26.2484 13.068 25.9825 13.3349L19.5153 19.8291C19.2495 20.096 18.8184 20.096 18.5526 19.8291L15.6302 16.8945L11.0059 21.5381C10.74 21.805 10.309 21.805 10.0431 21.5381C9.77729 21.2711 9.77729 20.8383 10.0431 20.5713L15.1488 15.4444C15.4147 15.1774 15.8457 15.1774 16.1116 15.4444L19.034 18.379L25.0198 12.3682C25.2856 12.1012 25.7167 12.1012 25.9825 12.3682Z" fill="white"/>
<path fill-rule="evenodd" clip-rule="evenodd" d="M20.7359 12.8516C20.7359 12.474 21.0407 12.168 21.4167 12.168H25.5012C25.8772 12.168 26.182 12.474 26.182 12.8516V16.9531C26.182 17.3307 25.8772 17.6367 25.5012 17.6367C25.1252 17.6367 24.8204 17.3307 24.8204 16.9531V13.5352H21.4167C21.0407 13.5352 20.7359 13.2291 20.7359 12.8516Z" fill="white"/>
</g>
<defs>
<linearGradient id="paint0_linear_9_200" x1="17.5" y1="0" x2="17.5" y2="35" gradientUnits="userSpaceOnUse">
<stop stop-color="#1ABD00"/>
<stop offset="1" stop-color="#9ED994"/>
</linearGradient>
</defs>
</svg>
