<svg width="19" height="23" viewBox="0 0 19 23" fill="none" xmlns="http://www.w3.org/2000/svg">
<path d="M18.409 4.17208C18.3643 4.12059 18.3096 4.07878 18.2482 4.0492C18.1868 4.01962 18.1201 4.0029 18.052 4.00008C18.002 4.00008 13.061 3.80008 9.81897 1.11108C9.72927 1.03676 9.61645 0.996094 9.49997 0.996094C9.38348 0.996094 9.27066 1.03676 9.18097 1.11108C5.93897 3.80708 0.999966 4.00008 0.947966 4.00008C0.880138 4.0024 0.813492 4.01851 0.752091 4.04742C0.690689 4.07633 0.635815 4.11744 0.590813 4.16824C0.545812 4.21905 0.511623 4.27848 0.490331 4.34292C0.469039 4.40736 0.461089 4.47546 0.466966 4.54308C0.466966 4.54308 0.929966 9.88708 1.12697 12.0991C1.32697 14.2781 1.68597 18.3311 9.28497 21.9481C9.35224 21.9797 9.42565 21.996 9.49997 21.996C9.57428 21.996 9.64769 21.9797 9.71497 21.9481C17.315 18.3311 17.678 14.2781 17.873 12.0991C18.073 9.88708 18.533 4.54308 18.533 4.54308C18.5383 4.47608 18.5301 4.40869 18.5088 4.34495C18.4874 4.2812 18.4535 4.22241 18.409 4.17208ZM16.877 12.0151C16.701 13.9741 16.377 17.6021 9.49997 20.9451C2.62297 17.6021 2.29997 13.9741 2.12297 12.0151C1.96297 10.2151 1.62297 6.35508 1.50697 4.96908C4.3753 4.7521 7.13414 3.77531 9.49997 2.13908C11.8658 3.77531 14.6246 4.7521 17.493 4.96908C17.373 6.35508 17.037 10.2181 16.877 12.0151ZM8.78797 12.4601L11.333 9.42107C11.4181 9.31923 11.5402 9.25538 11.6724 9.24356C11.8046 9.23175 11.9361 9.27294 12.038 9.35808C12.1398 9.44321 12.2037 9.56531 12.2155 9.69753C12.2273 9.82974 12.1861 9.96123 12.101 10.0631L9.15597 13.5781C9.10906 13.6344 9.05035 13.6797 8.984 13.7108C8.91764 13.7419 8.84525 13.758 8.77197 13.7581H8.76297C8.68813 13.7565 8.6146 13.7382 8.54779 13.7045C8.48099 13.6707 8.42261 13.6224 8.37697 13.5631L6.88797 11.6331C6.84536 11.5814 6.81358 11.5216 6.7945 11.4574C6.77543 11.3932 6.76946 11.3258 6.77694 11.2592C6.78442 11.1927 6.8052 11.1283 6.83805 11.0699C6.87089 11.0115 6.91514 10.9603 6.96816 10.9194C7.02117 10.8784 7.08188 10.8485 7.14667 10.8315C7.21145 10.8145 7.27901 10.8106 7.34531 10.8202C7.41161 10.8298 7.47531 10.8526 7.53263 10.8873C7.58995 10.922 7.63971 10.9678 7.67897 11.0221L8.78797 12.4601Z" fill="#EE1F23" stroke="#F5F5F5" stroke-width="0.1"/>
</svg>
