<svg width="24" height="24" viewBox="0 0 24 24" fill="none" xmlns="http://www.w3.org/2000/svg">
<path d="M1.43072 1.40716H4.80791V0H0.0235596V4.78435H1.43072V1.40716Z" fill="black"/>
<path d="M20.6218 20.7179V6.4243H16.7258V7.83146H19.2147V9.74164H17.4525V11.1488H19.2147V13.1524H15.1901V11.0036H13.783V13.1524H13.7598H10.908V7.40448H12.5568V5.99732H10.908V3.39609H3.34247V10.9616H9.50082V16.1299H7.24106V19.3107H4.06913V20.7179H10.908V19.3107H8.64822V17.5371H10.908V14.5596H13.0562V20.7179H20.6218V20.7179ZM19.2147 19.3107H14.4634V14.5595H19.2147V19.3107ZM4.74963 4.80325H9.50082V9.55444H4.74963V4.80325Z" fill="black"/>
<path d="M16.7489 3.39609H20.6218V4.80325H16.7489V3.39609Z" fill="black"/>
<path d="M6.39856 6.35864H7.85192V7.76581H6.39856V6.35864Z" fill="black"/>
<path d="M15.9991 16.2316H17.4525V17.6387H15.9991V16.2316Z" fill="black"/>
<path d="M13.4865 3.39609H14.9398V4.80325H13.4865V3.39609Z" fill="black"/>
<path d="M13.7599 8.19791H15.2133V9.60507H13.7599V8.19791Z" fill="black"/>
<path d="M4.04608 16.1299H5.49945V17.5371H4.04608V16.1299Z" fill="black"/>
<path d="M3.7431 13.1524H7.8288V14.5595H3.7431V13.1524Z" fill="black"/>
<path d="M1.43072 19.2156H0.0235596V24H4.80791V22.5928H1.43072V19.2156Z" fill="black"/>
<path d="M19.1922 0V1.40716L22.5694 1.40721V4.7844H23.9766V4.69054e-05L19.1922 0Z" fill="black"/>
<path d="M22.5694 22.5928L19.1922 22.5928V23.9999L23.9766 24V19.2156H22.5694V22.5928Z" fill="black"/>
</svg>
