<svg width="25" height="24" viewBox="0 0 25 24" fill="none" xmlns="http://www.w3.org/2000/svg">
<path d="M12.0958 1.45312C14.5216 1.45505 16.8721 2.29787 18.7494 3.83884C20.6266 5.37981 21.9151 7.52421 22.3967 9.90884C22.8783 12.2935 22.5233 14.7718 21.3919 16.924C20.2605 19.0762 18.4222 20.77 16.1884 21.7186C13.6226 22.7853 10.7402 22.7909 8.17037 21.734C5.60049 20.6772 3.55167 18.6438 2.47098 16.0774C1.39029 13.5111 1.36546 10.6203 2.4019 8.03565C3.43834 5.45104 5.45192 3.3825 8.00326 2.28141C9.29795 1.73182 10.69 1.4501 12.0958 1.45312ZM12.0958 0C5.48847 0 0.131744 5.37281 0.131744 12C0.131744 18.6272 5.48847 24 12.0958 24C18.7032 24 24.0599 18.6272 24.0599 12C24.0599 5.37281 18.7032 0 12.0958 0Z" fill="#EE1F23"/>
<path d="M15.4729 9.28793C15.0457 9.28793 14.619 9.28793 14.1919 9.28793C13.6109 9.28793 13.2361 9.63761 13.2315 10.1786C13.2268 10.7307 13.6053 11.0856 14.2026 11.0865C15.3579 11.0865 16.5132 11.0865 17.6684 11.0865C18.2961 11.0865 18.6354 10.7471 18.6368 10.1157C18.6396 8.95699 18.6396 7.7984 18.6368 6.63996C18.6368 6.03433 18.2863 5.65886 17.7353 5.66215C17.1843 5.66543 16.8501 6.04277 16.8473 6.65496V8.00074C16.6926 7.86574 16.5791 7.77902 16.48 7.67777C15.6556 6.83871 14.7092 6.2073 13.5642 5.88808C9.42539 4.73402 5.34779 7.99746 5.5609 12.302C5.70905 15.294 7.88501 17.7826 10.8494 18.2584C12.9436 18.5945 14.7788 17.995 16.3015 16.4936C16.6795 16.1186 16.6987 15.625 16.3636 15.2542C16.0285 14.8834 15.5023 14.8595 15.0896 15.1876C14.7513 15.4553 14.4251 15.7473 14.0559 15.9639C11.2808 17.5904 7.59152 15.6287 7.35831 12.4126C7.18867 10.0731 8.66128 8.05043 10.9429 7.55824C12.4725 7.23011 13.8189 7.65715 14.9728 8.70668C15.1551 8.87261 15.328 9.0484 15.5056 9.21949L15.4729 9.28793Z" fill="#EE1F23"/>
</svg>
