<svg width="22" height="21" viewBox="0 0 22 21" fill="none" xmlns="http://www.w3.org/2000/svg">
<path d="M17.932 15.0538L13.239 14.395C12.4924 14.2915 11.7834 14.7244 11.5482 15.4271C11.4854 15.6121 11.4384 15.8035 11.4039 15.998C8.80955 14.9126 6.73912 12.8453 5.65371 10.251C5.84821 10.2165 6.03957 10.1663 6.22779 10.1035C6.93048 9.86827 7.36339 9.15616 7.25986 8.41269L6.60109 3.71971C6.49757 2.96997 5.87017 2.4053 5.11728 2.37707C4.87887 2.36452 4.64359 2.37707 4.41145 2.41158C2.68609 2.65313 1.33404 3.97068 1.05171 5.6678C1.00779 5.84034 0.995241 6.46774 1.00151 6.54303C1.21483 14.1283 7.31947 20.3177 14.8734 20.6345H14.8765C14.9361 20.6345 15.8427 20.6251 15.8898 20.6126C17.6214 20.3585 18.9986 18.9688 19.2401 17.2403C19.2746 17.0081 19.2841 16.7697 19.2746 16.5376C19.2464 15.7815 18.6817 15.1573 17.932 15.0538ZM18.6974 17.165C18.4904 18.6456 17.3171 19.8346 15.8239 20.0698C15.7204 20.073 14.9487 20.0887 14.9173 20.0887C7.6269 19.7812 1.7544 13.8272 1.55049 6.52107C1.54422 6.42696 1.56304 5.89367 1.58814 5.78073C1.83596 4.30006 2.99979 3.16446 4.48674 2.95428C4.64359 2.93232 4.80044 2.92291 4.96043 2.92291C5.00435 2.92291 5.04827 2.92291 5.09532 2.92605C5.5847 2.94487 5.98937 3.3119 6.05839 3.79814L6.71716 8.49112C6.78304 8.97422 6.50698 9.43222 6.05211 9.58594C5.81684 9.66436 5.57215 9.71769 5.29609 9.74592L5.2459 9.74906C5.1612 9.75533 5.08277 9.80239 5.03572 9.87454C4.98866 9.94669 4.97925 10.0377 5.01062 10.1192C6.15563 13.1245 8.53349 15.4992 11.5388 16.6411C11.6203 16.6725 11.7113 16.663 11.7834 16.616C11.8556 16.5689 11.9027 16.4905 11.9121 16.4058L11.9152 16.3337C11.9403 16.0827 11.9936 15.838 12.0752 15.6027C12.2289 15.151 12.6869 14.8718 13.17 14.9377L17.863 15.5965C18.3492 15.6655 18.7163 16.0701 18.7351 16.5595C18.7351 16.7603 18.7257 16.9642 18.6974 17.165Z" fill="#EE1F23" stroke="#EE1F23" stroke-width="0.2"/>
<path d="M8.88173 7.3901H9.11074V8.56021C9.11074 8.6606 9.1672 8.75471 9.25504 8.80176C9.29582 8.82372 9.33974 8.83627 9.38679 8.83627C9.44012 8.83627 9.49032 8.82058 9.53737 8.79235L11.7019 7.3901H16.0373C16.627 7.3901 17.107 6.91014 17.107 6.32038V2.06972C17.107 1.47996 16.627 1 16.0373 1H8.88173C8.29198 1 7.81201 1.47996 7.81201 2.06972V6.32038C7.81201 6.91014 8.29198 7.3901 8.88173 7.3901ZM8.36099 2.06972C8.36099 1.78425 8.59313 1.54898 8.88173 1.54898H16.031C16.3165 1.54898 16.5517 1.78112 16.5517 2.06972V6.32038C16.5517 6.60585 16.3196 6.84113 16.031 6.84113H11.6172C11.5639 6.84113 11.5137 6.85681 11.4666 6.88504L9.65658 8.05515V7.11405C9.65658 6.96347 9.53423 6.83799 9.38052 6.83799H8.8786C8.59313 6.83799 8.35785 6.60585 8.35785 6.31724V2.06972H8.36099Z" fill="#EE1F23" stroke="#EE1F23" stroke-width="0.2"/>
<path d="M10.0267 5.12828C10.5411 5.12828 10.9584 4.71106 10.9584 4.19659C10.9584 3.68212 10.5411 3.26489 10.0267 3.26489C9.51219 3.26489 9.09497 3.68212 9.09497 4.19659C9.09497 4.71106 9.51219 5.12828 10.0267 5.12828ZM10.0267 3.81387C10.2368 3.81387 10.4094 3.98641 10.4094 4.19659C10.4094 4.40677 10.2368 4.5793 10.0267 4.5793C9.81648 4.5793 9.64395 4.40677 9.64395 4.19659C9.64395 3.98327 9.81648 3.81387 10.0267 3.81387Z" fill="#EE1F23" stroke="#EE1F23" stroke-width="0.2"/>
<path d="M12.458 5.12828C12.9724 5.12828 13.3897 4.71106 13.3897 4.19659C13.3897 3.68212 12.9724 3.26489 12.458 3.26489C11.9435 3.26489 11.5263 3.68212 11.5263 4.19659C11.5231 4.71106 11.9435 5.12828 12.458 5.12828ZM12.458 3.81387C12.6681 3.81387 12.8407 3.98641 12.8407 4.19659C12.8407 4.40677 12.6681 4.5793 12.458 4.5793C12.2478 4.5793 12.0752 4.40677 12.0752 4.19659C12.0721 3.98327 12.2446 3.81387 12.458 3.81387Z" fill="#EE1F23" stroke="#EE1F23" stroke-width="0.2"/>
<path d="M14.8859 5.12828C15.4004 5.12828 15.8176 4.71106 15.8176 4.19659C15.8176 3.68212 15.4004 3.26489 14.8859 3.26489C14.3714 3.26489 13.9542 3.68212 13.9542 4.19659C13.9542 4.71106 14.3714 5.12828 14.8859 5.12828ZM14.8859 3.81387C15.0961 3.81387 15.2686 3.98641 15.2686 4.19659C15.2686 4.40677 15.0961 4.5793 14.8859 4.5793C14.6757 4.5793 14.5032 4.40677 14.5032 4.19659C14.5032 3.98327 14.6757 3.81387 14.8859 3.81387Z" fill="#EE1F23" stroke="#EE1F23" stroke-width="0.2"/>
<path d="M19.9302 2.90112H18.0825C17.932 2.90112 17.8065 3.02347 17.8065 3.17718C17.8065 3.33089 17.9288 3.45324 18.0825 3.45324H19.9302C20.2157 3.45324 20.451 3.68538 20.451 3.97398V8.22464C20.451 8.51011 20.2188 8.74539 19.9302 8.74539H19.4283C19.2777 8.74539 19.1523 8.86773 19.1523 9.02144V9.96255L17.3422 8.79244C17.2983 8.76421 17.2449 8.74852 17.1916 8.74852H13.4648C13.217 8.74852 13.0006 8.56971 12.9535 8.32816C12.9253 8.18072 12.781 8.08034 12.6335 8.10857C12.4861 8.13681 12.3857 8.28111 12.4139 8.42855C12.5112 8.93047 12.9504 9.2975 13.4617 9.2975H17.1101L19.2746 10.6997C19.3185 10.728 19.3718 10.7437 19.4252 10.7437C19.4691 10.7437 19.5161 10.7311 19.5569 10.7092C19.6448 10.6621 19.7012 10.568 19.7012 10.4676V9.2975H19.9302C20.52 9.2975 21 8.81754 21 8.22778V3.97085C21 3.38109 20.52 2.90112 19.9302 2.90112Z" fill="#EE1F23" stroke="#EE1F23" stroke-width="0.2"/>
</svg>
