<svg width="20" height="20" viewBox="0 0 20 20" fill="none" xmlns="http://www.w3.org/2000/svg">
<path d="M10 20C4.48598 20 0 15.514 0 10C0 4.48598 4.48598 0 10 0C15.514 0 20 4.48598 20 10C20 15.514 15.514 20 10 20ZM10 1.1215C5.1028 1.1215 1.1215 5.1028 1.1215 10C1.1215 14.8972 5.1028 18.8785 10 18.8785C14.8972 18.8785 18.8785 14.8972 18.8785 10C18.8785 5.1028 14.8972 1.1215 10 1.1215Z" fill="#EE1F23"/>
<path d="M12.6589 12.4907C12.7336 12.6215 12.8224 13.0374 12.4486 13.2617C11.8551 13.6215 11.0561 13.6355 10.8224 13.6355C8.71495 13.6355 7 11.9252 7 9.81776C7 7.71028 8.71495 6 10.8224 6C11.3178 6 11.8178 6.02804 12.486 6.3785C12.7617 6.52336 12.8458 6.85514 12.7243 7.14019C12.6495 7.31776 12.3598 7.57477 11.9626 7.3785C11.486 7.14019 11.1682 7.13084 10.8224 7.13084C9.33645 7.13084 8.13084 8.33645 8.13084 9.81776C8.13084 11.2991 9.33645 12.5047 10.8224 12.5047C11.229 12.5047 11.6542 12.4159 11.8832 12.2804C12.1542 12.1308 12.5 12.2243 12.6589 12.4907Z" fill="#EE1F23"/>
</svg>
