<svg width="19" height="19" viewBox="0 0 19 19" fill="none" xmlns="http://www.w3.org/2000/svg">
<path d="M9.91875 15.7C6.73125 15.7 4.14062 13.1062 4.14062 9.91875C4.14062 6.73125 6.73125 4.14062 9.91875 4.14062C13.1062 4.14062 15.6969 6.73125 15.6969 9.91875C15.6969 13.1062 13.1031 15.7 9.91875 15.7ZM9.91875 4.76562C7.07812 4.76562 4.76562 7.07812 4.76562 9.91875C4.76562 12.7594 7.07812 15.0719 9.91875 15.0719C12.7594 15.0719 15.0719 12.7594 15.0719 9.91875C15.0719 7.07812 12.7594 4.76562 9.91875 4.76562Z" fill="#EE1F23" stroke="#EE1F23" stroke-width="0.2"/>
<path d="M11.8281 18.8406H8.00625C7.85 18.8406 7.71562 18.725 7.69687 18.5688L7.54687 17.4125C7.11562 17.2781 6.69687 17.1031 6.29687 16.8938L5.375 17.6063C5.25 17.7031 5.075 17.6906 4.9625 17.5813L2.2625 14.8813C2.15 14.7719 2.14062 14.5938 2.23438 14.4688L2.94375 13.5469C2.73438 13.1438 2.55938 12.7219 2.425 12.2875L1.27188 12.1375C1.11563 12.1156 1 11.9844 1 11.8281V8.00938C1 7.85313 1.11563 7.71875 1.27188 7.7L2.42813 7.55C2.55938 7.12187 2.73438 6.70312 2.94375 6.3L2.23438 5.375C2.14062 5.25 2.15 5.075 2.2625 4.9625L4.9625 2.26562C5.075 2.15625 5.25 2.14375 5.375 2.24062L6.29687 2.94687C6.7 2.7375 7.11875 2.5625 7.54687 2.42812L7.69687 1.27187C7.71562 1.11562 7.85 1 8.00625 1H11.8281C11.9844 1 12.1187 1.11562 12.1375 1.27187L12.2906 2.42812C12.7219 2.5625 13.1406 2.7375 13.5406 2.94687L14.4656 2.2375C14.5906 2.14375 14.7656 2.15313 14.875 2.26562L17.575 4.9625C17.6875 5.075 17.6969 5.25 17.6 5.375L16.8844 6.30313C17.0938 6.70625 17.2656 7.125 17.4 7.55L18.5625 7.7C18.7188 7.71875 18.8344 7.85313 18.8344 8.00938V11.825C18.8344 11.9812 18.7188 12.1156 18.5625 12.1344L17.4031 12.2844C17.2719 12.7125 17.0969 13.1313 16.8875 13.5344L17.6 14.4625C17.6938 14.5875 17.6844 14.7625 17.5719 14.875L14.8719 17.575C14.7625 17.6875 14.5844 17.6969 14.4594 17.6031L13.5312 16.8906C13.1281 17.1 12.7094 17.275 12.2812 17.4094L12.1312 18.5656C12.1187 18.7219 11.9875 18.8406 11.8281 18.8406ZM8.28125 18.2156H11.5531L11.6937 17.1313C11.7094 17.0063 11.7969 16.9062 11.9187 16.8719C12.4375 16.725 12.9437 16.5156 13.4187 16.25C13.5281 16.1875 13.6625 16.2 13.7594 16.275L14.6312 16.9438L16.9438 14.6313L16.275 13.7594C16.2 13.6594 16.1906 13.525 16.25 13.4188C16.5156 12.9406 16.7219 12.4344 16.8656 11.9219C16.9 11.8 17.0031 11.7125 17.125 11.6969L18.2125 11.5563V8.28438L17.1219 8.14375C16.9969 8.12813 16.8937 8.04062 16.8625 7.91875C16.7187 7.40312 16.5094 6.90313 16.2469 6.425C16.1875 6.31563 16.1969 6.18125 16.2719 6.08125L16.9438 5.20937L14.6312 2.9L13.7625 3.56562C13.6625 3.64062 13.5312 3.65 13.4219 3.59063C12.9469 3.32812 12.4406 3.11875 11.9219 2.96875C11.8031 2.93438 11.7125 2.83125 11.6969 2.70938L11.5531 1.625H8.28125L8.14062 2.70938C8.125 2.83438 8.0375 2.93438 7.91562 2.96875C7.39687 3.11563 6.89062 3.325 6.41563 3.59063C6.30625 3.65313 6.17188 3.64062 6.075 3.56562L5.20937 2.90313L2.89688 5.2125L3.5625 6.08125C3.6375 6.18125 3.64687 6.31562 3.5875 6.42187C3.32187 6.9 3.11563 7.40625 2.97188 7.91875C2.9375 8.04062 2.83438 8.12813 2.7125 8.14375L1.62813 8.28438V11.5531L2.70938 11.6938C2.83438 11.7094 2.93438 11.7969 2.96875 11.9188C3.11875 12.4406 3.32812 12.9469 3.59063 13.425C3.65 13.5344 3.64062 13.6688 3.56562 13.7656L2.90313 14.6313L5.21563 16.9438L6.08125 16.2781C6.18125 16.2031 6.31562 16.1906 6.425 16.2531C6.9 16.5156 7.40625 16.725 7.925 16.875C8.04375 16.9094 8.13437 17.0125 8.15 17.1344L8.28125 18.2156Z" fill="#EE1F23" stroke="#EE1F23" stroke-width="0.2"/>
<path d="M6.35311 14.3718C6.32811 14.3718 6.30311 14.3687 6.28123 14.3624C6.11248 14.3218 6.00936 14.153 6.04998 13.9843C6.47498 12.2093 8.04373 10.953 9.86873 10.9312H9.87811H9.88123H9.96248H9.97186H9.97498C11.8 10.9562 13.3687 12.2093 13.7937 13.9812C13.8344 14.1499 13.7312 14.3187 13.5625 14.3593C13.3969 14.3999 13.225 14.2968 13.1844 14.128C12.8281 12.6343 11.5062 11.578 9.96873 11.5562C9.96561 11.5562 9.96248 11.5562 9.96248 11.5562H9.91248C9.88748 11.5593 9.86248 11.5593 9.84061 11.5562C8.31873 11.5905 7.01248 12.6437 6.65623 14.1312C6.62498 14.2749 6.49686 14.3718 6.35311 14.3718Z" fill="#EE1F23" stroke="#EE1F23" stroke-width="0.2"/>
<path d="M9.92185 11.5625C8.55623 11.5625 7.44373 10.45 7.44373 9.08433C7.44373 7.7187 8.55623 6.6062 9.92185 6.6062C11.2875 6.6062 12.4 7.7187 12.4 9.08433C12.4 10.4531 11.2875 11.5625 9.92185 11.5625ZM9.92185 7.23433C8.89998 7.23433 8.06873 8.06558 8.06873 9.08745C8.06873 10.1093 8.89998 10.9406 9.92185 10.9406C10.9437 10.9406 11.775 10.1093 11.775 9.08745C11.775 8.06558 10.9437 7.23433 9.92185 7.23433Z" fill="#EE1F23" stroke="#EE1F23" stroke-width="0.2"/>
</svg>
