<svg width="96" height="11" viewBox="0 0 96 11" fill="none" xmlns="http://www.w3.org/2000/svg">
<path d="M5.0107 10.2486C4.34978 10.2592 3.69351 10.1406 3.08078 9.90051C2.46808 9.66045 1.91149 9.30334 1.4441 8.85061C0.976719 8.39789 0.608097 7.8586 0.360125 7.26504C0.112151 6.67175 -0.0100964 6.03582 0.000651972 5.39575C0.000651972 2.69982 2.09478 0.517334 5.09022 0.517334C6.91927 0.517334 8.03261 1.10779 8.93389 1.98094L7.55548 3.4957C6.81325 2.82824 6.04451 2.41738 5.0637 2.41738C3.4202 2.41738 2.25385 3.75256 2.25385 5.37017C2.25385 6.98778 3.39368 8.32295 5.0637 8.32295C6.17704 8.32295 6.86626 7.91209 7.63501 7.21879L8.98693 8.55397C8.50174 9.11186 7.89111 9.55451 7.20184 9.84832C6.51262 10.1421 5.76303 10.2788 5.0107 10.2486Z" fill="black"/>
<path d="M20.6497 10.2527L19.7856 8.06889H15.7006L14.8365 10.2527H12.6631L16.8004 0.517334H18.7382L22.8755 10.2527H20.6497ZM17.7431 3.06947L16.46 6.20073H19.0262L17.7431 3.06947Z" fill="black"/>
<path d="M33.0037 10.2527L30.8725 7.13102H29.1461V10.2527H26.9609V0.517334H31.4931C33.8399 0.517334 35.2426 1.73432 35.2426 3.71835C35.2426 5.30568 34.3796 6.28438 33.1117 6.73406L35.5394 10.2263L33.0037 10.2527ZM33.0306 3.85067C33.0306 2.92468 32.3833 2.44838 31.3313 2.44838H29.1461V5.25269H31.3582C32.4371 5.25269 33.0306 4.69705 33.0306 3.87703V3.85067Z" fill="black"/>
<path d="M45.7623 10.2527L43.7327 7.13102H42.1141V10.2527H40.0332V0.517334H44.3493C46.5846 0.517334 47.9205 1.73432 47.9205 3.71835C47.9205 5.30568 47.0983 6.28438 45.8908 6.73406L48.2031 10.2263L45.7623 10.2527ZM45.8138 3.85067C45.8138 2.92468 45.1971 2.44838 44.1696 2.44838H42.1141V5.25269H44.2208C45.223 5.25269 45.8138 4.69705 45.8138 3.87703V3.85067Z" fill="black"/>
<path d="M52.6963 10.2527V0.517334H54.7388V10.2527H52.6963Z" fill="black"/>
<path d="M67.716 10.2527V3.90338L64.9643 8.05701H64.9111L62.1595 3.93001V10.2527H60.0491V0.517334H62.3732L64.9643 4.64433L67.5288 0.517334H69.853V10.2527H67.716Z" fill="#C83E96"/>
<path d="M74.7551 10.2527V0.517334H82.0553V2.42202H76.8634V4.40605H81.423V6.311H76.8634V8.34801H82.1081V10.2527H74.7551Z" fill="#C83E96"/>
<path d="M93.7781 10.2527L89.1084 4.06233V10.2527H87.0098V0.517334H88.9772L93.4895 6.49604V0.517334H95.5882V10.2527H93.7781Z" fill="#C83E96"/>
</svg>
