<svg width="20" height="19" viewBox="0 0 20 19" fill="none" xmlns="http://www.w3.org/2000/svg">
<path d="M15.4096 13.9125L14.3408 12.375C14.1949 12.166 14.1164 11.9174 14.1158 11.6625V7.25C14.1158 5.5924 13.4573 4.00268 12.2852 2.83058C11.1131 1.65848 9.52341 1 7.8658 1C6.2082 1 4.61849 1.65848 3.44638 2.83058C2.27428 4.00268 1.6158 5.5924 1.6158 7.25V11.6625C1.6152 11.9174 1.53669 12.166 1.3908 12.375L0.322053 13.9125C0.160227 14.0918 0.0538133 14.3141 0.0156791 14.5526C-0.0224551 14.7911 0.0093237 15.0356 0.107173 15.2564C0.205021 15.4772 0.364749 15.665 0.567041 15.7969C0.769333 15.9289 1.00552 15.9994 1.24705 16H4.8033C4.94675 16.7064 5.33001 17.3415 5.88814 17.7977C6.44627 18.2539 7.14496 18.5031 7.8658 18.5031C8.58665 18.5031 9.28533 18.2539 9.84346 17.7977C10.4016 17.3415 10.7849 16.7064 10.9283 16H14.4846C14.7261 15.9994 14.9623 15.9289 15.1646 15.7969C15.3669 15.665 15.5266 15.4772 15.6244 15.2564C15.7223 15.0356 15.7541 14.7911 15.7159 14.5526C15.6778 14.3141 15.5714 14.0918 15.4096 13.9125ZM7.8658 17.25C7.47896 17.2489 7.10193 17.1282 6.78639 16.9044C6.47085 16.6806 6.23225 16.3647 6.1033 16H9.6283C9.49936 16.3647 9.26076 16.6806 8.94522 16.9044C8.62968 17.1282 8.25264 17.2489 7.8658 17.25ZM1.24705 14.75C1.2753 14.7238 1.30046 14.6944 1.32205 14.6625L2.4158 13.0875C2.70758 12.6695 2.8646 12.1723 2.8658 11.6625V7.25C2.8658 5.92392 3.39259 4.65215 4.33027 3.71447C5.26795 2.77678 6.53972 2.25 7.8658 2.25C9.19188 2.25 10.4637 2.77678 11.4013 3.71447C12.339 4.65215 12.8658 5.92392 12.8658 7.25V11.6625C12.867 12.1723 13.024 12.6695 13.3158 13.0875L14.4096 14.6625C14.4311 14.6944 14.4563 14.7238 14.4846 14.75H1.24705Z" fill="#777777"/>
<ellipse cx="14" cy="6.5" rx="6" ry="6.5" fill="#C83E96"/>
<path d="M11.991 4.978L14.007 3.349H14.925V10H13.719V4.987L12.63 5.842L11.991 4.978Z" fill="white"/>
</svg>
