<svg width="14" height="18" viewBox="0 0 14 18" fill="none" xmlns="http://www.w3.org/2000/svg">
<path d="M2.12692 11.654C1.94379 11.654 1.76223 11.5737 1.63848 11.4197C-0.0380826 9.32561 -0.34152 6.42467 0.865355 4.02936C1.02035 3.72155 1.39567 3.59655 1.70504 3.75249C2.01317 3.9078 2.13723 4.28374 1.98192 4.59186C0.994417 6.55155 1.24285 8.9253 2.61442 10.6384C2.83004 10.9078 2.7866 11.3012 2.51692 11.5169C2.40192 11.609 2.2641 11.654 2.12692 11.654Z" fill="#777777"/>
<path d="M2.50436 3.41147C2.34311 3.41147 2.18217 3.3496 2.05967 3.22585C1.81717 2.98022 1.81936 2.5846 2.06499 2.3421L2.28717 2.12241C2.5328 1.87991 2.92842 1.88179 3.17124 2.12772C3.41374 2.37335 3.41155 2.76897 3.16592 3.01147L2.94374 3.23116C2.82217 3.35147 2.66311 3.41147 2.50436 3.41147Z" fill="#777777"/>
<path d="M11.884 11.6541C11.7472 11.6541 11.609 11.6091 11.4937 11.5169C11.2244 11.3013 11.1806 10.9078 11.3962 10.6384C12.9115 8.74625 13.0309 6.0175 11.6878 4.00281C10.1578 1.70781 7.0178 0.857814 4.53811 2.06781C4.22748 2.21906 3.85405 2.09 3.70248 1.78031C3.55092 1.47 3.67967 1.09594 3.98998 0.944376C7.0703 -0.559374 10.8265 0.457814 12.7278 3.30906C14.37 5.77188 14.2237 9.10688 12.3722 11.4194C12.2487 11.5738 12.0672 11.6541 11.884 11.6541Z" fill="#777777"/>
<path d="M7.01101 10.8654C7.0107 10.8654 7.0107 10.8654 7.01101 10.8654C6.0907 10.8654 5.21007 10.5373 4.53164 9.94132C3.24226 8.80882 2.88757 6.88757 3.68789 5.37288C4.32945 4.15913 5.63851 3.37476 7.0232 3.37476C7.32632 3.37476 7.62851 3.41194 7.9207 3.48538C9.56351 3.89757 10.7554 5.42726 10.7554 7.12288C10.7554 8.33632 10.1635 9.48038 9.17289 10.1832C8.54351 10.6294 7.79632 10.8654 7.01101 10.8654ZM7.0232 4.62476C6.09632 4.62476 5.2207 5.14757 4.7932 5.95694C4.25976 6.96601 4.49695 8.24694 5.35664 9.00226C5.80664 9.39757 6.39414 9.61538 7.0107 9.61538C7.53539 9.61538 8.0332 9.45913 8.44976 9.16382C9.11101 8.69507 9.5057 7.93226 9.5057 7.12288C9.5057 5.99257 8.71132 4.97257 7.61664 4.69788C7.42351 4.64944 7.22382 4.62476 7.0232 4.62476Z" fill="#777777"/>
<path d="M7.0054 17.7478C6.86852 17.7478 6.7304 17.7028 6.61508 17.6106C6.34571 17.395 6.30196 17.0016 6.51758 16.7322L11.3963 10.6384C11.6123 10.3687 12.0051 10.3256 12.2751 10.5412C12.5445 10.7569 12.5882 11.1503 12.3726 11.4197L7.49383 17.5134C7.37008 17.6675 7.18852 17.7478 7.0054 17.7478Z" fill="#777777"/>
<path d="M7.00596 17.7478C6.82284 17.7478 6.64128 17.6675 6.51753 17.5134L1.63878 11.4197C1.42315 11.1503 1.46659 10.7569 1.73628 10.5412C2.00534 10.3256 2.39878 10.3687 2.61503 10.6384L7.49378 16.7322C7.7094 17.0016 7.66596 17.395 7.39628 17.6106C7.28065 17.7028 7.14284 17.7478 7.00596 17.7478Z" fill="#777777"/>
</svg>
